<?xml version="1.0" standalone="no"?>
<!DOCTYPE svg PUBLIC "-//W3C//DTD SVG 20010904//EN"
 "http://www.w3.org/TR/2001/REC-SVG-20010904/DTD/svg10.dtd">
<svg version="1.0" xmlns="http://www.w3.org/2000/svg"
 width="520.000000pt" height="520.000000pt" viewBox="0 0 520.000000 520.000000"
 preserveAspectRatio="xMidYMid meet">
<metadata>
Created by potrace 1.11, written by Peter Selinger 2001-2013
</metadata>
<g transform="translate(0.000000,520.000000) scale(0.100000,-0.100000)"
fill="#000000" stroke="none">
<path d="M0 5191 c0 -6 4 -13 10 -16 6 -3 7 1 4 9 -7 18 -14 21 -14 7z"/>
<path d="M5170 5196 c0 -2 7 -7 16 -10 8 -3 12 -2 9 4 -6 10 -25 14 -25 6z"/>
<path d="M1183 5078 c3 -9 2 -18 -3 -20 -5 -2 -10 -21 -12 -43 -1 -22 -10 -49
-20 -59 -10 -11 -18 -16 -18 -12 0 5 -8 2 -17 -5 -9 -8 -14 -9 -10 -3 4 7 0
14 -8 18 -8 3 -15 0 -15 -7 0 -8 -4 -6 -10 3 -5 8 -10 10 -10 5 0 -6 -9 -11
-19 -11 -11 0 -18 3 -16 6 2 4 -2 7 -10 7 -8 0 -12 -4 -9 -9 8 -12 -10 -10
-24 4 -12 12 -13 10 -16 -14 0 -7 -6 -13 -13 -13 -6 0 -15 -3 -19 -7 -4 -5 -2
-8 5 -8 7 0 9 -5 6 -10 -4 -6 -10 -8 -15 -5 -4 3 -7 -3 -6 -13 0 -9 -4 -16
-10 -15 -6 1 -10 -9 -8 -23 1 -15 -4 -28 -12 -31 -8 -3 -11 -10 -7 -16 4 -6 0
-8 -11 -4 -10 4 -15 3 -11 -3 3 -6 0 -10 -7 -10 -10 0 -10 -2 1 -9 11 -7 9
-11 -8 -20 -13 -7 -19 -17 -14 -24 4 -7 -1 -6 -11 2 -9 8 -16 10 -15 5 4 -21
-2 -28 -11 -14 -8 13 -10 12 -10 -4 0 -13 -5 -16 -16 -12 -13 5 -14 3 -7 -6 7
-9 4 -18 -8 -30 -15 -14 -18 -14 -23 -2 -4 10 -2 12 6 8 7 -4 8 -3 4 5 -4 6
-12 9 -17 5 -5 -3 -7 -9 -4 -14 3 -4 -2 -11 -11 -14 -9 -4 -13 -2 -8 5 4 7 1
10 -7 7 -8 -3 -13 -10 -12 -15 1 -6 -8 -8 -20 -6 -25 5 -71 -29 -59 -43 4 -4
-2 -2 -13 6 -11 8 -17 10 -13 6 4 -5 2 -16 -5 -24 -10 -13 -9 -14 3 -8 8 4 4
-1 -10 -12 l-24 -20 31 2 c18 1 29 -2 26 -7 -3 -4 3 -7 12 -5 10 2 20 -4 22
-12 3 -11 2 -12 -5 -2 -7 10 -15 8 -37 -10 -16 -12 -26 -17 -21 -10 4 6 2 12
-3 12 -6 0 -11 -8 -12 -17 0 -11 -3 -13 -6 -5 -7 19 -23 14 -16 -5 3 -10 3
-15 -2 -11 -4 4 -14 0 -21 -10 -10 -14 -10 -21 3 -41 11 -17 12 -22 2 -16 -8
4 -6 0 3 -10 14 -15 20 -16 32 -5 13 10 16 10 16 -1 0 -11 2 -11 10 1 5 8 10
10 10 4 0 -7 7 -14 14 -17 11 -4 13 -1 10 11 -5 15 -4 15 6 -1 6 -9 15 -15 21
-12 5 4 9 -2 9 -12 0 -15 2 -16 10 -3 9 13 10 13 11 0 0 -10 3 -8 9 5 8 18 9
18 9 2 1 -14 6 -17 24 -12 17 5 19 4 7 -4 -9 -7 -10 -11 -3 -11 6 0 15 5 19
11 4 8 9 7 15 -2 8 -12 12 -11 22 2 16 20 51 34 42 16 -4 -6 3 -1 14 13 11 14
21 20 21 14 0 -13 31 -14 48 -1 6 5 12 5 12 0 0 -5 9 -9 20 -10 11 -1 19 1 16
5 -2 4 9 7 24 7 16 1 26 -3 24 -7 -3 -4 0 -8 5 -8 6 0 11 6 11 13 0 8 4 7 10
-3 8 -12 10 -12 10 -1 0 11 3 11 17 0 14 -12 16 -12 9 1 -6 12 -4 11 6 -1 7
-9 19 -14 27 -11 8 3 11 0 7 -6 -3 -6 3 -13 14 -17 11 -3 20 -11 20 -16 0 -6
-6 -7 -12 -4 -7 4 -4 -1 7 -10 11 -9 20 -21 20 -28 1 -7 7 -11 15 -9 11 3 11
0 0 -12 -8 -11 -9 -16 -1 -16 6 0 11 -11 11 -25 0 -14 4 -25 10 -25 5 0 6 -8
3 -17 -6 -16 -4 -16 9 -5 14 11 16 11 14 0 -1 -7 -4 -17 -7 -23 -7 -12 15 -58
23 -50 3 3 8 -1 12 -10 3 -9 2 -13 -4 -10 -6 3 -10 1 -10 -4 0 -6 4 -11 9 -11
6 0 8 -9 6 -20 -2 -11 0 -18 6 -15 5 4 9 -5 9 -19 0 -14 5 -26 12 -26 9 0 9
-3 0 -12 -17 -17 -15 -28 4 -28 8 0 12 -4 9 -10 -3 -5 -1 -10 6 -10 7 0 9 -10
7 -25 -3 -14 -1 -23 6 -22 6 1 10 -6 10 -15 -1 -10 2 -16 6 -13 4 3 10 -2 13
-10 4 -10 1 -12 -11 -8 -14 5 -14 3 1 -9 11 -8 20 -26 20 -40 1 -14 5 -24 8
-22 4 2 13 -4 20 -13 8 -9 9 -14 3 -10 -6 3 -11 0 -11 -8 0 -8 4 -12 9 -9 4 3
8 0 8 -6 0 -6 5 -8 13 -4 8 5 8 2 -2 -9 -7 -9 -9 -17 -3 -17 5 0 13 -7 16 -16
4 -10 2 -13 -6 -8 -7 4 -2 -9 11 -29 12 -20 20 -41 16 -47 -3 -5 -1 -10 5 -10
7 0 10 -7 7 -14 -4 -11 -1 -13 10 -9 13 5 15 2 11 -15 -4 -12 -1 -25 4 -29 7
-4 8 -1 3 7 -5 9 -4 11 3 6 7 -4 12 -16 12 -27 0 -11 5 -17 10 -14 6 3 10 -1
10 -10 0 -10 -5 -13 -12 -9 -7 4 -8 3 -4 -4 4 -7 14 -12 22 -12 12 0 20 -27
15 -54 -1 -5 5 -6 13 -3 9 4 18 1 22 -5 4 -7 3 -8 -4 -4 -7 4 -12 2 -12 -3 0
-6 5 -11 10 -11 6 0 9 -6 8 -12 -2 -7 3 -12 10 -10 11 2 16 -11 10 -22 -2 -3
8 -16 20 -29 17 -18 22 -32 18 -49 -3 -12 -3 -17 0 -10 8 17 24 15 24 -3 0 -8
6 -15 13 -15 8 0 7 -4 -3 -10 -13 -9 -13 -10 0 -11 8 -1 19 0 25 1 5 1 7 -2 3
-5 -4 -4 5 -24 20 -43 15 -20 21 -33 15 -28 -7 4 -13 2 -13 -3 0 -6 10 -11 23
-11 18 0 19 -2 7 -10 -11 -7 -11 -10 -2 -10 7 0 10 -5 7 -10 -4 -6 -3 -10 2
-9 4 1 15 1 23 0 13 -1 13 -2 0 -11 -11 -7 -11 -10 -2 -10 7 0 11 -4 7 -9 -3
-6 3 -8 13 -6 15 3 18 -2 16 -21 -2 -18 3 -24 16 -24 14 0 17 -5 12 -22 -5
-21 -4 -22 14 -8 10 8 16 10 12 6 -4 -5 0 -15 10 -23 9 -8 11 -12 5 -8 -8 4
-11 1 -7 -9 3 -8 14 -13 24 -11 12 2 17 -1 14 -9 -6 -15 21 -46 39 -46 8 0 7
-3 -2 -9 -11 -7 -9 -10 8 -16 11 -3 21 -11 21 -16 0 -6 -5 -7 -12 -3 -7 4 -8
3 -4 -5 4 -6 12 -9 17 -6 5 4 13 -4 18 -17 6 -14 10 -17 11 -8 1 9 5 5 11 -9
6 -16 14 -21 27 -16 13 5 14 3 5 -6 -15 -15 11 -44 29 -33 8 5 7 0 -2 -11 -9
-11 -10 -16 -2 -11 7 4 15 1 18 -8 3 -9 10 -13 15 -10 5 3 9 0 9 -6 0 -6 6
-18 14 -25 10 -11 16 -11 25 -2 9 9 11 8 5 -6 -5 -13 -1 -20 15 -24 11 -3 21
-12 21 -20 0 -8 9 -17 20 -20 10 -3 22 -14 25 -24 4 -11 11 -17 16 -14 5 4 17
1 26 -5 16 -11 16 -11 -1 -5 -18 5 -19 4 -4 -12 17 -20 13 -47 -5 -36 -7 4 -6
-1 2 -10 9 -12 10 -17 2 -17 -7 0 -9 -5 -5 -12 5 -7 9 -21 9 -30 1 -15 -1 -16
-14 -6 -9 7 -13 8 -9 4 4 -5 2 -16 -5 -24 -9 -13 -9 -14 0 -8 9 5 11 2 7 -8
-3 -9 -9 -14 -13 -12 -4 3 -7 -6 -7 -20 0 -13 3 -24 6 -24 4 0 7 -7 7 -15 0
-8 -4 -12 -9 -9 -4 3 -8 0 -8 -5 0 -6 6 -11 13 -11 8 0 7 -4 -3 -10 -14 -9 -7
-14 13 -11 5 1 6 -3 2 -9 -3 -6 -3 -19 0 -31 5 -16 10 -18 20 -9 12 10 13 6 5
-20 -7 -25 -6 -31 4 -27 17 7 16 -43 -2 -61 -7 -8 -10 -17 -7 -22 3 -5 0 -12
-6 -16 -8 -5 -9 -3 -4 7 6 10 5 11 -4 3 -7 -6 -13 -20 -14 -32 -1 -17 -4 -19
-17 -9 -8 6 -12 7 -8 3 4 -5 0 -15 -10 -23 -9 -8 -11 -12 -5 -8 8 4 13 0 13
-10 0 -9 -4 -13 -10 -10 -5 3 -10 2 -10 -4 0 -5 -7 -17 -16 -25 -9 -9 -11 -16
-4 -16 6 0 8 -5 5 -10 -4 -6 -11 -7 -17 -4 -6 4 -8 2 -5 -3 4 -6 -2 -18 -13
-28 -11 -10 -20 -23 -20 -28 0 -6 6 -2 14 8 13 19 14 18 13 -7 -1 -14 -5 -24
-8 -22 -4 2 -13 -4 -20 -13 -10 -11 -10 -14 -2 -9 9 5 11 2 7 -8 -3 -9 -10
-16 -16 -16 -5 0 -6 -5 -3 -10 3 -5 1 -10 -5 -10 -7 0 -10 -7 -7 -14 4 -10 1
-13 -9 -9 -12 4 -13 1 -4 -21 9 -24 8 -26 -9 -16 -18 9 -19 7 -15 -16 4 -20 1
-25 -9 -21 -11 4 -13 0 -9 -15 4 -16 2 -19 -8 -13 -10 6 -12 4 -7 -8 3 -10 2
-17 -3 -17 -6 0 -10 -4 -10 -10 0 -5 8 -7 18 -3 14 5 13 3 -3 -10 -11 -8 -23
-13 -27 -11 -4 3 -5 -3 -1 -12 4 -11 3 -15 -5 -10 -7 4 -10 -1 -7 -14 2 -11
-1 -23 -7 -26 -7 -5 -8 -2 -3 6 5 9 4 11 -4 6 -7 -5 -9 -16 -5 -28 4 -14 2
-18 -5 -14 -10 6 -15 -6 -12 -27 0 -4 -7 -7 -17 -7 -13 0 -14 -2 -4 -9 10 -6
9 -11 -4 -22 -15 -12 -17 -12 -9 0 5 10 4 12 -4 7 -9 -6 -9 -11 0 -22 10 -12
9 -13 -6 -8 -13 5 -16 4 -11 -4 4 -7 2 -12 -4 -12 -6 0 -9 -4 -6 -9 3 -5 -1
-11 -9 -15 -9 -3 -12 -12 -8 -22 5 -13 3 -15 -8 -9 -10 7 -9 2 3 -17 11 -16
14 -29 8 -33 -12 -7 -9 -55 3 -55 4 0 6 -4 3 -9 -3 -5 1 -12 9 -15 12 -4 14
-10 5 -25 -9 -17 -7 -19 12 -16 16 4 19 2 10 -7 -14 -14 -16 -32 -3 -23 5 3
12 1 16 -5 3 -5 1 -10 -6 -10 -7 0 -4 -7 7 -16 10 -8 13 -13 7 -9 -20 10 -15
-20 7 -40 14 -13 17 -22 10 -35 -7 -13 -6 -20 3 -23 9 -4 8 -8 -3 -16 -13 -10
-13 -11 0 -12 8 -1 19 -1 23 0 5 1 6 -3 2 -9 -3 -6 -11 -8 -16 -5 -5 3 -6 -1
-3 -10 4 -10 13 -14 23 -11 11 4 10 2 -3 -9 -18 -14 -19 -15 -2 -15 15 0 17
-5 12 -26 -5 -19 -4 -24 6 -18 9 6 9 3 -1 -9 -8 -10 -11 -20 -7 -24 3 -3 6 -1
6 6 0 9 4 9 14 -1 11 -10 11 -16 2 -27 -8 -11 -8 -13 0 -8 7 4 14 -3 16 -18 5
-22 3 -24 -11 -13 -12 10 -12 8 2 -8 20 -24 22 -38 5 -28 -10 6 -10 5 -1 -8 7
-8 9 -19 5 -23 -4 -5 -1 -5 6 -1 7 4 12 1 12 -9 0 -9 4 -14 8 -11 5 3 9 -1 9
-9 0 -8 -4 -12 -9 -9 -4 3 -8 0 -8 -5 0 -6 6 -11 13 -11 8 0 7 -4 -3 -11 -12
-9 -10 -10 8 -6 19 5 21 3 11 -9 -9 -11 -9 -14 0 -14 7 0 9 -4 6 -10 -3 -5 3
-17 14 -27 16 -14 18 -20 8 -32 -9 -12 -9 -13 0 -7 8 4 13 1 13 -8 0 -8 9 -20
20 -26 11 -6 18 -15 15 -21 -4 -5 -1 -9 5 -9 6 0 8 -4 5 -10 -4 -6 1 -7 11 -3
14 5 16 3 11 -12 -6 -15 -5 -16 7 -6 13 11 15 9 11 -9 -4 -18 -2 -20 11 -9 8
7 14 8 13 3 -4 -20 2 -35 11 -29 6 3 7 -1 4 -10 -4 -9 -3 -15 2 -14 21 4 28
-2 14 -11 -12 -8 -10 -10 8 -10 13 0 20 -4 17 -10 -3 -5 0 -10 8 -10 8 0 18
-7 21 -16 5 -13 9 -14 21 -4 8 7 12 17 8 24 -4 6 0 6 9 -2 14 -11 15 -7 14 33
-1 25 3 45 9 45 5 0 3 5 -5 10 -8 5 -10 10 -4 10 8 0 9 11 4 35 -6 25 -5 33 4
28 6 -4 5 1 -3 10 -12 15 -11 17 5 18 18 0 18 1 -1 9 -11 5 -15 9 -8 9 6 1 9
10 6 21 -3 11 -10 17 -17 14 -6 -3 0 4 14 15 16 14 19 19 8 15 -13 -4 -18 -1
-18 12 0 16 -2 17 -10 4 -8 -12 -10 -12 -10 -1 0 9 -8 12 -25 9 -13 -3 -22 -1
-19 3 3 5 -2 9 -10 9 -8 0 -18 5 -21 10 -4 6 -3 10 2 9 22 -4 25 3 7 17 -18
15 -18 15 0 10 18 -6 18 -5 2 19 -15 23 -15 24 1 19 10 -3 7 2 -7 10 -16 10
-19 16 -10 16 12 0 11 3 -3 11 -9 6 -15 14 -12 20 4 5 1 9 -5 9 -6 0 -9 4 -6
9 3 5 -4 12 -17 15 -21 7 -21 8 -3 15 18 7 18 8 2 14 -12 5 -17 14 -13 27 3
13 1 18 -6 13 -7 -4 -8 0 -3 12 5 15 4 16 -8 6 -11 -10 -14 -9 -12 1 1 7 6 19
11 27 5 10 4 16 -3 19 -7 2 -12 10 -12 18 0 8 -5 14 -11 14 -8 0 -8 4 0 14 9
11 8 17 -4 29 -11 12 -12 17 -2 20 9 4 9 6 0 6 -7 1 -10 8 -7 16 3 8 -1 22
-10 31 -9 8 -14 20 -11 25 4 5 1 9 -6 9 -10 0 -10 3 -2 11 6 6 9 18 6 25 -3 8
1 22 8 31 9 10 9 14 2 10 -7 -5 -16 1 -23 12 -8 17 -8 19 4 15 15 -6 16 11 2
35 -6 9 -3 17 7 22 9 5 22 23 31 39 9 19 10 28 3 23 -7 -4 -5 4 5 17 9 14 23
24 31 24 10 -1 13 4 10 14 -4 10 -2 13 5 8 8 -5 10 -1 5 11 -3 10 -2 15 2 11
11 -11 38 29 29 44 -4 7 -3 8 5 4 6 -4 14 0 18 11 3 10 20 30 37 45 17 16 27
28 23 28 -4 0 -2 6 5 14 7 8 16 12 20 10 4 -3 5 5 3 16 -2 11 0 18 6 15 5 -4
9 -1 9 4 0 6 7 11 15 11 9 0 12 6 9 15 -4 10 0 15 11 15 9 0 14 4 11 9 -3 5 2
15 11 22 12 10 14 10 9 2 -4 -7 -2 -13 3 -13 6 0 11 5 11 10 0 6 4 10 10 10 5
0 7 -7 4 -15 -4 -8 1 -17 10 -21 11 -4 15 -13 10 -26 -5 -15 -3 -19 7 -13 11
6 11 5 3 -4 -8 -9 -7 -21 4 -46 9 -19 19 -32 22 -30 4 2 7 -2 7 -10 0 -8 -4
-12 -9 -9 -4 3 -8 0 -8 -5 0 -6 4 -11 10 -11 5 0 7 -6 4 -14 -3 -7 2 -20 10
-29 9 -9 16 -25 16 -37 0 -12 4 -19 9 -16 12 8 9 -47 -4 -57 -6 -4 -2 -7 9 -5
12 2 20 -4 21 -15 2 -9 -1 -15 -6 -11 -5 3 -9 0 -9 -5 0 -6 4 -11 9 -11 5 0
12 -7 15 -16 3 -8 2 -12 -4 -9 -6 3 -7 -1 -4 -9 3 -9 10 -14 14 -11 4 3 10 -8
12 -24 3 -23 1 -28 -11 -25 -9 3 -6 -1 7 -7 12 -7 22 -16 22 -21 0 -5 -5 -6
-10 -3 -6 4 -9 1 -8 -7 2 -7 11 -16 22 -21 15 -6 16 -10 6 -22 -10 -12 -10
-15 1 -15 10 -1 9 -5 -4 -14 -14 -11 -15 -15 -5 -19 8 -3 9 -6 2 -6 -8 -1 -9
-12 -4 -38 5 -20 6 -41 3 -46 -3 -6 -1 -7 4 -4 15 10 14 -66 0 -76 -8 -6 -6
-7 5 -3 10 3 20 1 23 -4 4 -6 0 -10 -7 -10 -8 0 -6 -5 5 -11 12 -7 16 -17 12
-30 -4 -11 -2 -19 4 -19 6 0 11 -5 11 -11 0 -5 -4 -8 -8 -5 -4 2 -8 -4 -8 -15
0 -10 4 -19 9 -19 5 0 4 -7 -3 -15 -9 -10 -9 -15 -1 -15 6 0 11 -5 11 -11 0
-5 -4 -8 -8 -5 -5 3 -9 -1 -9 -9 0 -8 4 -15 8 -15 4 0 12 -13 18 -30 6 -20 7
-30 0 -30 -6 0 -7 -6 -2 -13 12 -19 12 -38 1 -30 -7 4 -9 -2 -5 -16 5 -19 3
-20 -10 -9 -15 12 -15 10 -3 -12 16 -29 16 -30 -2 -41 -11 -7 -10 -11 2 -19
13 -9 13 -10 0 -10 -12 0 -13 -2 -1 -9 11 -7 11 -9 0 -14 -10 -4 -10 -6 -1 -6
6 -1 12 -6 12 -12 0 -5 -4 -8 -8 -5 -5 3 -9 -1 -9 -9 0 -8 5 -11 10 -8 6 4 8
-5 4 -23 -3 -16 -4 -23 -1 -16 8 18 24 14 17 -5 -4 -10 -2 -14 4 -10 5 3 9 -2
8 -11 -4 -29 -17 -52 -27 -46 -5 3 -8 -1 -6 -9 2 -9 -1 -16 -6 -15 -5 0 -13
-7 -18 -16 -5 -9 -16 -16 -25 -16 -13 0 -13 -3 -3 -15 11 -13 10 -14 -5 -9
-14 6 -16 4 -10 -6 6 -10 4 -12 -7 -7 -12 4 -15 0 -14 -18 2 -18 -1 -22 -13
-17 -14 5 -14 3 -2 -11 7 -9 10 -17 5 -17 -4 0 2 -9 14 -21 23 -21 102 -34
102 -17 0 5 4 7 9 3 5 -3 12 -1 16 5 3 5 12 10 18 10 7 0 6 -4 -3 -11 -11 -7
0 -9 39 -5 36 3 50 1 40 -5 -9 -5 -9 -9 -2 -9 6 0 15 5 18 10 4 6 10 8 15 5 5
-3 12 0 16 6 4 8 9 7 15 -2 7 -11 9 -10 9 4 0 9 5 17 11 17 8 0 7 5 -1 15 -11
13 -10 14 5 9 15 -6 16 -4 5 16 -7 12 -7 20 -2 16 6 -3 13 -2 16 3 4 5 -2 12
-11 15 -10 3 -24 16 -32 28 -13 22 -13 22 6 8 10 -8 6 -3 -10 11 -18 17 -25
29 -18 34 6 3 9 10 6 15 -3 5 0 12 5 15 8 5 5 14 -7 28 -10 11 -12 17 -5 13 8
-5 12 -1 12 11 0 14 2 15 9 5 6 -10 10 -9 14 7 3 12 1 19 -4 15 -5 -3 -9 -3
-9 1 0 3 10 10 23 15 13 5 16 9 7 9 -9 1 -16 10 -16 20 0 11 4 17 8 15 4 -3 8
-1 8 5 0 5 -6 12 -12 15 -10 5 -10 7 0 12 9 4 7 10 -6 22 -10 10 -12 13 -5 8
11 -7 12 -4 3 19 -9 24 -8 26 7 21 15 -6 15 -5 -2 14 -14 15 -15 20 -4 20 11
0 11 2 -1 10 -9 6 -11 10 -3 10 7 0 10 7 7 15 -4 8 -11 12 -16 9 -6 -4 -5 3 1
15 8 15 9 21 1 21 -6 0 -9 4 -6 9 4 5 0 12 -6 14 -7 3 -4 6 7 6 17 1 17 3 5
11 -8 5 -15 22 -15 37 0 15 7 34 15 41 8 8 10 11 3 8 -6 -4 -14 -2 -18 4 -3 5
-1 10 6 10 7 0 5 8 -6 20 -15 17 -16 20 -3 15 22 -9 31 10 13 25 -18 15 -20
34 -2 24 8 -5 8 -2 -2 9 -11 14 -11 17 0 17 8 0 6 6 -7 16 -10 8 -13 13 -6 9
6 -3 12 -2 12 4 0 5 -6 12 -12 15 -10 5 -10 7 0 12 10 5 10 9 0 22 -10 12 -10
14 0 8 6 -4 12 -3 12 3 0 5 -6 12 -12 14 -10 4 -10 6 0 6 10 1 9 5 -3 17 -10
11 -13 20 -7 26 12 12 4 48 -10 48 -6 0 -4 8 3 17 12 15 12 16 -4 10 -15 -6
-16 -4 -7 13 8 15 8 20 -2 21 -7 0 -4 4 7 9 l20 9 -20 0 c-11 1 -16 5 -10 9 9
6 13 57 6 72 -8 16 -5 86 4 92 6 5 4 8 -5 8 -13 0 -13 1 0 10 9 6 11 10 3 10
-7 0 -10 7 -6 17 5 12 3 14 -8 8 -12 -8 -12 -6 0 8 12 15 12 19 -5 32 -19 14
-19 14 0 15 20 0 20 0 0 15 -14 11 -16 15 -4 15 12 0 12 3 -2 11 -9 5 -15 16
-12 24 4 8 10 12 15 9 5 -3 6 2 3 10 -3 9 -10 16 -15 16 -5 0 -9 5 -9 11 0 5
5 7 11 3 7 -4 7 1 -1 16 -8 15 -8 20 -1 16 6 -4 11 -2 11 3 0 6 -6 11 -12 11
-8 0 -9 3 -3 8 13 9 17 52 5 52 -6 0 -10 5 -10 11 0 5 4 7 10 4 6 -3 7 1 4 9
-5 12 0 16 20 16 14 0 26 -5 26 -11 0 -8 6 -7 17 2 15 12 16 12 10 -4 -4 -12
-3 -16 4 -11 15 9 60 -16 52 -30 -3 -6 0 -5 8 1 18 18 29 16 29 -4 0 -12 3
-14 8 -6 5 8 13 9 22 3 13 -8 13 -10 1 -10 -8 0 -12 -3 -9 -6 4 -3 16 0 28 6
15 8 20 8 16 1 -4 -6 -1 -11 6 -12 7 0 27 -2 43 -2 17 -1 29 -7 28 -13 -1 -7
6 -10 20 -7 18 4 19 3 7 -6 -8 -6 -10 -11 -4 -11 5 0 15 5 22 12 9 9 12 9 12
-2 0 -13 2 -13 10 0 6 10 10 11 10 3 0 -7 5 -13 11 -13 5 0 8 4 5 8 -3 5 4 8
15 7 11 -1 25 -8 30 -16 7 -12 9 -12 9 1 0 13 1 13 10 0 9 -13 10 -13 10 0 1
11 4 10 15 -4 12 -15 15 -16 15 -5 0 12 8 14 30 11 17 -2 30 -9 31 -16 0 -6 4
-2 9 9 6 13 9 15 9 5 1 -12 3 -12 10 -2 6 11 11 10 25 -3 15 -15 16 -15 17 7
0 22 1 22 9 3 5 -11 9 -15 9 -8 1 7 11 10 27 7 14 -3 32 0 40 7 10 8 17 7 29
-5 21 -20 26 -20 18 -1 -3 10 0 15 8 13 17 -4 40 -25 38 -35 -4 -16 13 -43 23
-37 6 4 5 -3 -2 -16 -10 -19 -9 -22 9 -27 12 -3 22 -9 22 -14 1 -5 2 -15 3
-21 1 -7 7 -12 13 -11 6 1 10 -8 8 -22 -1 -14 2 -25 6 -25 5 0 9 -8 9 -17 0
-16 2 -16 11 -3 8 12 9 7 6 -17 -3 -25 0 -33 12 -33 14 0 14 -1 1 -10 -13 -8
-12 -10 3 -10 10 0 15 -5 12 -10 -3 -5 -1 -10 6 -10 8 0 8 -4 -1 -15 -8 -10
-9 -15 -2 -15 7 0 9 -7 5 -17 -4 -11 -3 -14 5 -9 7 4 12 2 12 -4 0 -6 4 -8 10
-5 6 4 7 -1 3 -11 -4 -12 -3 -15 5 -10 9 5 9 1 2 -18 -6 -18 -6 -26 1 -26 6 0
9 -6 6 -14 -3 -8 1 -20 9 -26 8 -7 14 -26 14 -42 0 -19 4 -27 11 -22 8 5 8 1
0 -14 -13 -24 -15 -43 -2 -24 7 11 9 11 14 -2 4 -9 1 -16 -6 -16 -8 0 -6 -4 3
-10 11 -7 11 -10 2 -10 -7 0 -10 -4 -7 -10 12 -20 14 -51 3 -44 -8 5 -9 1 -5
-10 4 -10 7 -20 7 -22 0 -3 5 -2 12 2 7 4 8 3 4 -4 -4 -7 -15 -12 -24 -13 -14
0 -13 -2 3 -9 11 -5 14 -9 7 -9 -7 -1 -10 -5 -7 -11 11 -17 14 -51 5 -45 -11
7 -7 -35 5 -54 5 -9 4 -12 -1 -8 -6 3 -16 -3 -23 -15 -7 -11 -8 -17 -2 -13 6
3 11 1 11 -4 0 -6 -6 -11 -12 -12 -7 0 -4 -4 7 -9 18 -8 18 -9 2 -9 -14 -1
-16 -5 -8 -19 6 -12 5 -23 -5 -36 -9 -14 -11 -23 -3 -32 7 -8 7 -14 -1 -19 -6
-3 -7 -11 -4 -17 5 -7 2 -9 -7 -6 -10 4 -14 -3 -14 -26 0 -17 -6 -37 -15 -44
-9 -8 -10 -11 -2 -7 11 6 12 3 3 -13 -6 -11 -16 -23 -23 -25 -10 -4 -10 -6 1
-6 11 -1 11 -4 0 -18 -11 -13 -11 -17 -1 -21 10 -3 10 -7 1 -18 -9 -11 -9 -14
1 -14 10 0 10 -3 0 -15 -10 -12 -10 -15 1 -15 10 -1 9 -5 -4 -14 -10 -8 -19
-18 -20 -23 -1 -4 -6 -7 -11 -5 -5 2 -3 -5 5 -14 9 -12 9 -15 2 -10 -8 4 -13
2 -13 -4 0 -6 -4 -8 -10 -5 -6 3 -7 -1 -4 -9 4 -11 0 -16 -11 -16 -10 0 -13
-5 -9 -12 5 -8 2 -9 -11 -4 -16 6 -16 4 -4 -11 7 -10 10 -15 6 -12 -13 11 -70
-51 -72 -75 0 -17 4 -22 15 -18 13 5 13 3 2 -10 -10 -13 -10 -18 -1 -24 8 -4
9 -3 5 4 -10 16 7 15 23 -1 11 -9 13 -9 7 0 -4 7 -3 13 3 13 5 0 12 -6 14 -12
4 -10 6 -9 6 1 1 10 4 11 15 2 10 -9 16 -9 21 -1 5 8 11 7 23 -2 14 -11 15
-10 8 6 -6 19 -6 19 12 3 10 -9 21 -14 24 -11 3 3 21 6 39 6 19 0 40 6 48 12
12 9 13 8 7 -4 -5 -8 6 1 23 20 35 40 38 50 14 50 -14 0 -15 2 -5 9 11 6 10
11 -3 25 -9 9 -13 16 -8 16 4 0 1 5 -7 10 -13 9 -12 12 4 25 13 10 15 15 6 15
-7 0 -11 3 -8 6 4 3 2 19 -2 35 -5 18 -5 27 1 24 5 -4 9 -1 9 5 0 6 5 8 12 4
8 -5 9 -2 5 9 -3 9 -1 19 5 23 7 5 8 2 3 -7 -8 -12 -6 -12 9 0 13 11 14 16 4
22 -11 7 -11 9 0 9 7 0 10 5 6 12 -4 7 -3 8 4 4 8 -4 10 3 7 24 -2 21 1 33 10
37 12 4 12 9 3 26 -10 19 -9 20 4 10 12 -10 15 -10 15 2 0 8 -5 15 -11 15 -6
0 -4 5 4 10 10 6 11 10 3 10 -7 0 -13 5 -13 11 0 5 6 7 13 3 9 -6 9 -4 -1 8
-9 12 -10 18 -2 23 6 4 9 14 5 22 -5 14 -3 14 11 2 16 -13 16 -12 6 8 -10 17
-9 22 5 28 15 5 15 7 3 15 -13 9 -13 10 0 10 11 1 10 4 -4 15 -17 13 -17 15
-4 15 9 0 20 5 24 12 4 6 3 8 -3 5 -6 -4 -13 0 -17 8 -3 8 -1 15 5 15 6 0 8 4
4 9 -3 5 -1 12 5 16 6 4 7 11 4 17 -5 8 -1 9 11 4 15 -5 16 -4 5 9 -10 12 -10
15 1 15 12 0 12 2 0 9 -9 6 -10 10 -2 16 9 5 9 10 0 21 -9 11 -8 15 5 20 13 5
14 9 5 20 -10 12 -8 13 6 8 13 -5 16 -4 11 4 -4 7 -2 12 3 12 6 0 11 5 11 11
0 5 -4 7 -10 4 -5 -3 -10 1 -10 9 0 8 4 18 10 21 6 3 10 11 10 16 0 6 -5 7
-12 3 -7 -4 -8 -3 -4 5 4 6 12 8 18 5 8 -5 9 -1 5 10 -5 13 -3 17 7 13 10 -4
14 0 11 14 -2 10 -7 24 -10 29 -3 6 1 13 10 16 12 5 13 9 4 20 -9 11 -8 14 2
15 8 0 5 4 -6 9 -11 5 -14 9 -7 9 6 1 12 8 12 17 0 8 -4 13 -9 10 -11 -7 -9
13 2 32 5 6 4 12 -2 12 -5 0 -8 8 -7 17 3 17 36 28 36 12 0 -6 4 -8 9 -5 5 3
12 -5 15 -19 4 -14 11 -25 17 -25 6 0 7 5 3 12 -4 7 -3 8 4 4 6 -4 9 -13 5
-21 -4 -11 -1 -13 13 -8 17 6 18 5 4 -12 -9 -11 -10 -16 -2 -11 6 4 12 3 12
-3 0 -6 6 -8 14 -5 9 3 13 -1 13 -13 -1 -11 4 -17 12 -15 12 3 12 1 1 -15 -8
-10 -10 -15 -6 -11 5 4 16 2 24 -5 13 -9 14 -9 8 0 -4 7 -5 13 -2 13 3 0 10
-9 16 -20 8 -15 7 -19 -2 -16 -7 1 -10 1 -5 -1 4 -3 7 -12 7 -21 0 -12 3 -13
8 -5 6 9 11 6 21 -8 7 -12 8 -18 3 -15 -6 3 -9 0 -8 -8 3 -20 27 -47 36 -41
12 8 -2 -39 -14 -47 -6 -4 0 -8 14 -9 23 0 23 -1 5 -9 -16 -7 -17 -9 -3 -9 11
-1 16 -8 13 -21 -2 -11 1 -23 7 -26 7 -5 8 -2 3 7 -5 8 -4 10 0 6 12 -10 15
-38 4 -31 -16 10 -9 -8 9 -22 12 -10 12 -12 2 -9 -11 4 -15 -3 -15 -25 -1 -16
3 -30 8 -30 5 0 4 -6 -2 -14 -9 -11 -9 -16 0 -22 8 -5 9 -3 4 6 -5 8 -4 11 3
7 5 -4 8 -16 5 -27 -3 -11 0 -20 6 -20 6 0 10 -3 10 -7 -1 -5 -1 -10 0 -13 8
-20 5 -90 -4 -90 -5 0 -3 -5 5 -10 13 -9 13 -10 0 -10 -9 0 -11 -3 -5 -8 11
-8 14 -73 3 -65 -14 8 -8 -10 9 -29 16 -18 16 -19 -3 -13 -18 6 -18 6 -1 -8
14 -11 15 -16 5 -20 -8 -4 -7 -6 5 -6 9 -1 17 -5 17 -11 0 -5 -8 -7 -17 -4
-16 5 -16 4 0 -6 18 -11 18 -12 0 -27 -11 -9 -12 -12 -3 -8 8 4 7 0 -4 -9 -10
-8 -16 -21 -13 -29 4 -11 0 -13 -15 -9 -17 4 -20 2 -15 -13 6 -14 3 -16 -14
-12 -11 3 -18 3 -15 0 3 -4 0 -13 -6 -22 -10 -13 -10 -14 2 -3 8 6 19 12 24
12 6 0 -1 -8 -17 -18 -15 -10 -24 -23 -20 -27 5 -5 0 -3 -10 4 -15 12 -17 12
-10 -4 5 -14 3 -17 -8 -13 -14 5 -15 -4 -10 -54 1 -5 8 -8 16 -8 9 0 18 -6 21
-13 2 -7 14 -13 24 -14 13 -1 18 2 13 10 -3 7 4 3 16 -7 16 -15 20 -16 16 -4
-5 12 1 15 30 12 20 -1 39 -5 42 -8 3 -2 15 -1 28 4 14 5 26 5 34 -3 8 -8 11
-8 11 1 0 6 7 9 17 5 10 -4 14 -2 10 4 -4 6 0 13 8 17 8 3 15 13 15 21 0 10 5
13 13 9 9 -5 9 -4 0 6 -9 9 -9 19 -2 33 6 11 7 17 2 14 -4 -3 -14 1 -21 9 -7
8 -10 14 -7 14 3 0 1 8 -4 18 -5 10 -6 24 -1 32 5 8 5 21 -1 31 -6 12 -4 19 7
23 13 5 14 9 4 21 -7 8 -10 22 -6 30 3 8 0 15 -7 15 -8 0 -7 4 3 9 8 6 19 7
25 4 5 -4 7 -3 3 2 -4 4 -3 14 3 21 8 10 7 18 -5 29 -19 20 -21 32 -3 16 11
-8 13 -6 12 9 -1 11 -4 23 -8 26 -4 4 -7 27 -7 51 0 31 -3 42 -12 37 -8 -5 -9
-2 -5 10 4 10 2 26 -3 37 -8 14 -7 19 2 20 7 0 4 4 -7 9 -16 7 -17 9 -3 9 9 1
20 6 24 13 4 6 3 8 -3 5 -6 -4 -13 0 -17 8 -3 8 0 15 7 15 8 0 6 4 -3 10 -8 5
-10 10 -4 10 8 0 9 13 4 40 -6 32 -4 43 9 51 14 9 14 10 0 6 -9 -3 -16 1 -16
9 0 7 4 11 8 9 4 -3 5 4 2 15 -3 11 -10 20 -17 20 -6 0 -4 5 4 10 12 8 12 10
1 10 -11 0 -11 3 0 17 11 13 11 17 2 20 -7 3 -13 9 -13 14 0 6 4 8 8 5 4 -2 8
4 8 14 0 10 -3 17 -6 15 -4 -2 -7 2 -7 10 0 8 4 12 8 9 4 -2 7 5 6 16 -1 11
-6 20 -12 20 -5 0 -3 5 5 10 10 6 11 10 3 10 -7 0 -13 5 -13 11 0 5 4 8 8 5
10 -6 9 25 -2 42 -4 7 -2 12 6 12 10 0 9 3 -2 9 -8 6 -19 7 -25 4 -5 -3 -5 0
2 7 9 9 4 19 -20 43 -23 23 -26 29 -12 24 19 -7 19 -6 3 7 -10 7 -18 18 -18
24 0 5 -7 12 -15 16 -8 3 -12 12 -9 19 3 8 -1 17 -9 20 -10 4 -13 14 -9 33 4
20 2 25 -8 19 -9 -6 -11 -4 -6 4 5 7 1 20 -7 29 -8 9 -20 28 -27 41 -10 19
-10 22 2 16 7 -3 5 0 -5 8 -18 15 -33 62 -16 52 13 -9 11 9 -4 24 -6 8 -7 11
-1 8 6 -3 11 0 11 8 0 8 -5 11 -10 8 -6 -4 -8 2 -5 15 4 12 1 20 -4 19 -6 -1
-13 4 -16 12 -2 8 0 11 5 8 5 -3 10 1 10 9 0 8 -5 13 -12 11 -6 -3 -12 5 -13
16 -1 18 1 19 9 7 7 -11 8 -7 5 14 -3 16 -9 32 -14 35 -21 14 -31 48 -19 61 9
10 9 14 0 17 -7 3 -13 9 -13 14 0 6 5 7 11 3 7 -4 7 1 -1 16 -8 15 -8 20 -1
16 6 -4 11 -2 11 3 0 6 -4 11 -10 11 -5 0 -10 5 -10 11 0 5 5 7 12 3 13 -8 3
12 -20 39 -13 14 -13 17 -1 17 9 0 10 3 3 8 -16 10 -24 62 -10 62 6 0 4 5 -4
10 -13 8 -12 10 3 10 11 0 16 5 12 13 -4 6 3 2 14 -11 11 -13 17 -30 14 -39
-4 -10 -2 -14 4 -10 6 4 14 0 17 -9 4 -10 2 -13 -7 -9 -6 4 -4 0 5 -8 14 -11
15 -16 5 -27 -7 -7 -7 -10 -2 -7 6 3 17 2 25 -4 13 -7 13 -9 0 -9 -12 -1 -11
-3 3 -11 10 -6 14 -15 10 -22 -4 -7 1 -6 10 2 15 12 17 12 11 -3 -3 -9 -1 -16
6 -16 6 0 9 -4 6 -9 -3 -4 4 -17 17 -27 l22 -19 -18 22 c-14 16 -15 23 -6 29
7 4 10 3 5 -4 -3 -6 3 -17 14 -25 11 -7 18 -16 15 -19 -3 -3 2 -11 12 -19 15
-12 16 -12 9 1 -4 9 -2 8 7 -2 8 -10 18 -14 22 -10 5 4 5 -1 2 -11 -4 -11 -3
-16 3 -12 6 3 13 -1 16 -9 3 -9 10 -16 16 -16 5 0 6 6 2 13 -6 8 -3 8 9 -2 9
-7 26 -29 38 -47 11 -19 25 -31 32 -27 7 4 8 0 4 -11 -5 -13 -3 -17 7 -13 8 3
20 -2 28 -11 9 -11 10 -14 1 -8 -19 11 -16 -2 6 -25 12 -13 25 -18 33 -14 10
6 11 5 0 -6 -16 -18 -15 -32 2 -26 10 4 13 1 9 -9 -3 -8 1 -14 8 -14 15 0 18
-55 4 -68 -5 -4 -5 -2 -1 5 3 6 2 15 -4 18 -6 4 -10 3 -9 -2 5 -26 -2 -63 -11
-58 -5 3 -10 1 -10 -4 0 -6 5 -11 11 -11 5 0 7 -5 4 -10 -3 -6 0 -10 7 -10 9
0 9 -3 -2 -10 -12 -8 -12 -10 -1 -10 10 0 11 -3 2 -14 -8 -10 -8 -16 2 -25 8
-6 16 -9 18 -6 3 2 5 -5 5 -16 0 -11 -5 -18 -12 -15 -13 5 -13 -11 -1 -31 6
-9 3 -11 -9 -6 -10 4 -15 2 -11 -4 10 -17 16 -64 7 -58 -5 3 -7 -4 -5 -16 3
-13 10 -26 16 -29 17 -11 17 -70 0 -81 -14 -9 -14 -10 0 -6 9 3 16 -1 16 -9 0
-7 -4 -11 -8 -8 -4 2 -2 -9 4 -26 7 -20 14 -25 19 -17 5 8 8 7 9 -5 1 -10 2
-24 3 -30 1 -7 -2 -16 -7 -19 -6 -4 0 -10 12 -14 11 -3 21 -11 21 -16 0 -6 -5
-7 -12 -3 -7 4 -8 3 -4 -4 4 -6 14 -8 24 -5 15 6 16 5 2 -12 -9 -11 -10 -16
-2 -11 7 4 12 1 12 -9 0 -10 7 -15 18 -13 11 2 16 -2 14 -12 -2 -8 0 -11 5 -7
4 5 8 12 8 15 0 4 4 13 8 20 5 7 4 12 -2 12 -6 0 -11 5 -11 11 0 5 4 8 8 5 5
-3 9 1 9 9 0 8 -4 15 -9 15 -5 0 -5 12 -2 26 4 17 2 29 -7 35 -11 7 -11 9 2 9
9 0 16 7 16 15 0 8 -4 15 -9 15 -4 0 -8 5 -8 11 0 5 4 8 9 4 5 -3 13 -1 16 5
4 6 3 9 -2 8 -4 -2 -8 1 -8 7 0 5 5 9 10 7 6 -1 1 5 -9 13 -16 12 -17 15 -4
15 9 0 15 8 14 18 0 9 4 16 10 15 12 -2 12 26 0 45 -4 6 -2 12 3 12 6 0 11 5
11 11 0 5 -6 7 -12 3 -9 -5 -9 -2 1 9 7 9 10 17 5 17 -11 0 -10 51 0 68 4 7 4
12 -1 12 -4 0 -8 15 -8 34 0 29 2 32 15 23 8 -6 5 0 -7 14 -13 14 -23 29 -23
35 0 5 5 2 10 -6 5 -8 10 -10 10 -5 -1 6 -7 19 -15 29 -10 13 -15 15 -15 6 0
-7 -3 -10 -6 -7 -4 4 -1 13 6 22 8 10 9 15 2 15 -7 0 -9 7 -5 17 4 10 2 14 -4
10 -5 -3 -22 7 -37 22 -20 21 -24 31 -15 36 8 6 10 4 4 -5 -5 -9 -4 -11 4 -6
15 10 4 26 -17 26 -15 0 -15 2 -2 10 13 8 12 10 -4 10 -13 0 -17 5 -13 20 3
11 1 18 -4 14 -5 -3 -17 0 -26 5 -14 8 -15 11 -3 11 12 0 11 3 -2 11 -10 5
-18 16 -18 23 0 7 -9 21 -20 31 -11 10 -17 23 -13 29 4 6 0 5 -9 -2 -13 -10
-18 -10 -24 -1 -5 8 -3 10 7 5 8 -4 6 -1 -5 8 -10 8 -16 19 -12 24 3 5 -1 9
-9 10 -8 1 -22 3 -30 4 -8 1 -12 5 -10 9 3 3 -2 12 -10 19 -8 7 -13 15 -11 19
3 4 0 13 -6 21 -8 12 -9 12 -4 -2 3 -10 1 -18 -4 -18 -6 0 -10 9 -10 20 0 11
-5 20 -11 20 -5 0 -7 6 -3 12 5 8 2 8 -10 -1 -9 -8 -16 -10 -15 -5 4 22 -2 35
-13 28 -6 -4 -8 -3 -5 4 9 14 -3 43 -14 36 -5 -3 -9 1 -9 8 0 8 -9 20 -19 28
-11 7 -18 17 -15 21 2 4 -2 14 -10 22 -8 8 -12 18 -8 23 4 5 6 8 4 7 -2 -1
-10 4 -17 10 -10 9 -10 15 -1 26 9 12 8 13 -3 6 -11 -6 -13 -4 -8 8 4 10 2 16
-6 14 -7 -1 -11 6 -9 15 2 13 -2 16 -15 11 -15 -6 -16 -4 -5 9 11 14 10 17 -8
23 -18 6 -19 9 -8 23 11 13 11 14 -1 7 -11 -6 -13 -2 -9 18 3 15 2 25 -2 22
-6 -4 -47 37 -42 43 1 1 2 11 2 23 0 13 -4 18 -12 13 -8 -5 -9 -2 -5 9 4 11 1
17 -9 17 -8 0 -12 5 -9 10 3 6 -1 13 -9 16 -9 3 -16 10 -16 16 0 5 5 6 12 2 7
-4 8 -3 4 4 -4 7 -15 12 -24 13 -10 0 -12 3 -5 6 8 3 4 13 -13 30 -14 14 -23
32 -20 40 3 8 1 11 -4 8 -6 -3 -18 0 -29 7 -18 13 -21 18 -21 39 0 5 -5 7 -12
3 -8 -5 -9 -2 -5 9 4 11 1 17 -9 17 -8 0 -12 4 -9 10 3 5 -5 15 -19 22 -14 6
-26 19 -26 28 0 9 -18 27 -40 40 -22 14 -40 29 -40 34 0 5 -6 3 -13 -3 -10 -8
-19 -6 -34 9 -12 10 -24 16 -27 13 -3 -4 -6 0 -6 8 0 11 -2 11 -10 -1 -8 -12
-10 -12 -10 5 0 17 -2 17 -10 5 -9 -13 -10 -13 -10 0 0 13 -1 13 -10 0 -9 -13
-14 -7 -11 13 2 11 -6 8 -25 -10 -16 -16 -17 -16 -12 -1 4 10 0 19 -10 24 -27
11 -43 13 -37 4 3 -5 0 -12 -6 -16 -7 -4 -9 -3 -6 2 3 6 2 16 -4 24 -7 12 -9
11 -9 -5 0 -15 -2 -17 -9 -6 -5 8 -11 9 -15 3 -3 -6 -15 -8 -26 -5 -11 3 -17
10 -13 17 4 6 -1 5 -10 -3 -12 -9 -17 -10 -17 -2 0 7 -4 10 -9 6 -5 -3 -17 2
-25 11 -12 11 -16 12 -16 2 0 -8 -3 -9 -8 -2 -9 13 -52 13 -52 -1 0 -5 -4 -4
-8 3 -9 13 -41 23 -79 26 -11 0 -19 4 -17 7 2 4 -3 10 -12 13 -8 3 -12 2 -9
-4 3 -5 -7 -8 -24 -7 -16 1 -27 6 -23 11 3 5 -2 7 -11 3 -9 -3 -19 -1 -23 5
-5 7 -2 8 6 3 9 -5 11 -4 6 4 -4 6 -12 9 -17 5 -5 -3 -17 0 -26 8 -15 11 -16
11 -10 -7 7 -18 6 -19 -6 -3 -8 10 -16 15 -19 13 -3 -3 -11 3 -19 12 -13 16
-12 17 4 4 9 -7 17 -9 17 -3 0 15 -26 22 -39 9 -8 -8 -11 -8 -11 2 0 8 -6 11
-16 7 -15 -6 -15 -4 -3 11 9 11 10 14 2 9 -9 -5 -13 -1 -13 11 0 14 -2 15 -9
5 -7 -11 -9 -10 -15 3 -3 9 -10 14 -15 10 -5 -3 -13 0 -17 6 -4 8 -3 9 4 5 7
-4 12 -2 12 5 0 7 -8 9 -21 6 -16 -4 -19 -2 -15 10 5 13 4 14 -9 3 -13 -10
-15 -9 -15 9 0 12 -4 19 -10 16 -5 -3 -10 -1 -10 5 0 6 -4 8 -10 5 -5 -3 -10
1 -10 10 0 11 -5 15 -15 12 -8 -4 -17 -1 -21 5 -4 7 -3 8 4 4 7 -4 12 -2 12 3
0 6 -10 11 -21 11 -16 0 -19 3 -11 13 8 10 6 13 -8 13 -10 0 -16 -4 -13 -9 10
-16 -33 11 -48 30 -11 15 -9 15 11 -2 l25 -20 -19 22 c-10 13 -22 21 -25 19
-3 -2 -17 1 -30 8 -16 9 -20 15 -12 21 9 5 8 12 -5 26 -13 15 -14 19 -3 19 10
1 9 4 -3 11 -10 5 -18 17 -18 25 0 9 5 12 13 8 6 -4 8 -3 4 1 -10 12 -38 15
-32 4 4 -5 -1 -6 -9 -3 -9 3 -16 14 -16 23 0 14 -2 14 -10 1 -8 -12 -10 -11
-10 6 0 11 -6 21 -12 22 -36 3 -52 11 -59 28 -6 15 -8 16 -8 2 -1 -11 -7 -15
-21 -11 -11 3 -20 9 -20 15 0 5 -10 3 -22 -3 -20 -11 -22 -11 -10 3 8 10 9 19
3 22 -5 4 -12 2 -16 -4 -9 -14 -62 -12 -68 3 -4 9 -6 9 -6 0 -1 -7 -8 -10 -18
-6 -12 5 -14 3 -9 -8 4 -8 1 -6 -7 4 -16 19 -32 24 -21 6 4 -7 -1 -7 -16 1
-21 11 -22 10 -16 -6 6 -18 5 -18 -9 0 -12 16 -17 17 -30 6 -9 -8 -15 -8 -15
-2 0 6 -9 10 -20 9 -11 -1 -20 -6 -20 -12 0 -5 -5 -3 -10 5 -9 13 -10 13 -10
0 0 -13 -1 -13 -10 0 -9 13 -10 13 -10 0 0 -9 -3 -11 -8 -5 -11 16 -47 41 -39
28 5 -7 0 -9 -14 -6 -12 4 -24 14 -26 24 -3 11 -9 16 -14 13 -5 -3 -9 0 -9 7
0 7 -3 9 -7 6 -3 -4 -13 -1 -21 6 -13 10 -14 9 -7 -3 6 -12 5 -13 -5 -3 -11
10 -11 15 0 30 12 15 12 16 0 6 -8 -7 -18 -13 -23 -13 -4 0 -5 6 -1 13 6 9 5
9 -7 0 -13 -11 -18 -9 -29 12 -7 13 -17 22 -22 19 -4 -3 -8 0 -8 6 0 6 -4 8
-10 5 -5 -3 -10 1 -10 9 0 9 -5 16 -11 16 -5 0 -7 4 -4 10 3 6 -1 7 -9 4 -11
-4 -16 0 -16 10 0 9 -7 16 -16 16 -8 0 -12 5 -9 10 3 6 1 10 -5 10 -6 0 -8 5
-4 12 5 8 2 9 -11 4 -15 -5 -16 -4 -6 8 11 13 9 15 -9 11 -18 -3 -20 -2 -10
10 7 8 10 16 6 16 -3 1 -10 2 -16 3 -5 0 -15 7 -22 15 -11 12 -10 13 2 7 8 -4
6 0 -4 8 -11 9 -25 16 -30 17 -6 0 -3 4 6 7 16 7 16 8 -3 20 -15 10 -19 10
-14 1 5 -8 4 -10 -4 -5 -9 6 -9 11 1 24 10 12 10 14 1 8 -9 -4 -13 -1 -13 9 0
10 -5 15 -14 12 -9 -4 -13 2 -12 16 1 12 -8 30 -19 40 -11 10 -13 16 -5 12 8
-4 5 2 -7 13 -12 11 -19 22 -16 26 4 3 -2 6 -13 6 -16 0 -17 2 -4 10 11 7 11
10 2 10 -7 0 -10 5 -7 10 3 6 -1 10 -10 10 -9 0 -16 7 -14 18 3 30 -1 43 -10
37 -6 -3 -15 4 -21 16 -9 16 -9 20 0 14 8 -5 7 0 -2 14 -7 12 -16 21 -21 21
-4 0 -5 5 -2 10 3 6 1 10 -5 10 -7 0 -10 7 -6 15 3 8 1 15 -5 15 -6 0 -8 7 -5
16 3 8 2 12 -4 9 -6 -3 -10 -2 -10 4 0 5 6 12 13 14 7 3 6 6 -5 6 -14 1 -29
25 -33 51 0 3 -4 10 -8 17 -4 6 -2 13 4 15 8 3 6 9 -5 20 -9 9 -16 21 -16 27
0 6 -5 11 -11 11 -8 0 -7 5 1 15 7 9 10 18 6 22 -3 3 -6 0 -6 -8 0 -12 -2 -12
-10 1 -6 9 -5 17 3 22 8 5 5 8 -8 8 -17 0 -17 2 -5 10 12 8 12 10 1 10 -9 0
-11 7 -8 21 3 12 0 22 -8 25 -14 6 -14 21 -1 42 5 8 3 12 -6 10 -7 -2 -12 3
-10 10 1 6 -3 12 -9 12 -5 0 -7 5 -4 10 3 6 2 10 -2 10 -5 0 -9 11 -9 24 0 14
3 23 7 20 4 -2 5 5 2 16 -3 11 -12 20 -20 20 -11 0 -11 4 -2 22 9 18 9 20 -4
15 -16 -6 -17 9 -3 32 6 10 5 12 -2 7 -7 -4 -12 -1 -12 9 0 12 5 15 16 11 14
-5 15 -4 4 9 -11 13 -10 14 4 9 11 -4 16 -2 14 7 -2 8 4 13 14 13 10 -1 15 3
11 9 -4 7 0 8 12 3 15 -5 16 -4 6 8 -10 12 -8 16 8 21 12 4 18 12 14 21 -3 8
1 14 8 14 8 0 5 6 -7 16 -10 8 -13 12 -5 8 10 -5 12 -3 7 5 -5 7 -14 10 -22 7
-17 -7 -18 5 -1 24 10 12 9 12 -3 3 -9 -7 -35 -13 -58 -14 -29 -2 -41 -7 -38
-15 3 -8 -1 -11 -10 -7 -8 3 -21 0 -28 -6 -10 -8 -16 -9 -21 -1 -3 6 -11 7
-17 4 -7 -5 -8 -2 -3 6 6 10 4 12 -10 6 -14 -5 -16 -4 -6 7 9 12 6 13 -15 9
-25 -5 -26 -4 -13 19 19 34 22 62 7 53 -9 -5 -9 -2 1 9 12 15 11 17 -2 17 -11
0 -14 5 -10 17 4 11 3 14 -5 9 -7 -4 -12 -2 -12 4 0 6 -5 8 -12 4 -7 -5 -9 -2
-5 8 4 11 0 15 -11 13 -9 -1 -16 -9 -14 -16 1 -8 -5 -5 -13 6 -14 17 -17 18
-25 5 -9 -13 -10 -13 -10 0 0 13 -1 13 -10 0 -9 -13 -11 -13 -21 0 -9 13 -10
13 -6 -2z m1672 -1818 c3 -5 1 -10 -4 -10 -6 0 -11 5 -11 10 0 6 2 10 4 10 3
0 8 -4 11 -10z m1171 -532 l19 -23 -25 20 c-14 11 -27 21 -29 22 -2 2 0 3 6 3
5 0 18 -10 29 -22z m-156 -2362 c0 -3 -4 -8 -10 -11 -5 -3 -10 -1 -10 4 0 6 5
11 10 11 6 0 10 -2 10 -4z"/>
<path d="M1570 3311 c0 -5 7 -12 16 -15 14 -5 15 -4 4 9 -14 17 -20 19 -20 6z"/>
<path d="M1660 3180 c0 -5 5 -10 11 -10 5 0 7 5 4 10 -3 6 -8 10 -11 10 -2 0
-4 -4 -4 -10z"/>
<path d="M3466 2908 c3 -5 10 -6 15 -3 13 9 11 12 -6 12 -8 0 -12 -4 -9 -9z"/>
<path d="M3935 2790 c3 -5 8 -10 11 -10 2 0 4 5 4 10 0 6 -5 10 -11 10 -5 0
-7 -4 -4 -10z"/>
<path d="M4285 2080 c-3 -6 1 -7 9 -4 18 7 21 14 7 14 -6 0 -13 -4 -16 -10z"/>
<path d="M4590 1896 c0 -2 7 -9 15 -16 9 -7 15 -8 15 -2 0 5 -7 12 -15 16 -8
3 -15 4 -15 2z"/>
<path d="M4306 1847 c3 -10 9 -15 12 -12 3 3 0 11 -7 18 -10 9 -11 8 -5 -6z"/>
<path d="M4550 1801 c0 -5 7 -15 17 -22 15 -13 15 -12 4 9 -12 23 -21 28 -21
13z"/>
<path d="M4810 1616 c0 -2 8 -10 18 -17 15 -13 16 -12 3 4 -13 16 -21 21 -21
13z"/>
<path d="M3633 1565 c0 -8 4 -12 9 -9 5 3 6 10 3 15 -9 13 -12 11 -12 -6z"/>
<path d="M2263 1525 c0 -8 4 -12 9 -9 5 3 6 10 3 15 -9 13 -12 11 -12 -6z"/>
<path d="M1835 1310 c4 -6 11 -8 16 -5 14 9 11 15 -7 15 -8 0 -12 -5 -9 -10z"/>
<path d="M2105 1300 c-3 -6 1 -7 9 -4 18 7 21 14 7 14 -6 0 -13 -4 -16 -10z"/>
<path d="M5 21 c-6 -11 13 -26 22 -17 4 3 1 6 -6 6 -7 0 -9 5 -6 10 3 6 4 10
1 10 -3 0 -7 -4 -11 -9z"/>
</g>
</svg>
